<svg width="20" height="21" viewBox="0 0 20 21" fill="none" xmlns="http://www.w3.org/2000/svg">
<g id="mi:email">
<path id="Vector" d="M1.66666 5.49967C1.66666 5.05765 1.84225 4.63372 2.15481 4.32116C2.46737 4.0086 2.8913 3.83301 3.33332 3.83301H16.6667C17.1087 3.83301 17.5326 4.0086 17.8452 4.32116C18.1577 4.63372 18.3333 5.05765 18.3333 5.49967V15.4997C18.3333 15.9417 18.1577 16.3656 17.8452 16.6782C17.5326 16.9907 17.1087 17.1663 16.6667 17.1663H3.33332C2.8913 17.1663 2.46737 16.9907 2.15481 16.6782C1.84225 16.3656 1.66666 15.9417 1.66666 15.4997V5.49967ZM4.59916 5.49967L9.99999 10.2255L15.4008 5.49967H4.59916ZM16.6667 6.60717L10.5492 11.9605C10.3972 12.0937 10.202 12.1671 9.99999 12.1671C9.79795 12.1671 9.60279 12.0937 9.45082 11.9605L3.33332 6.60717V15.4997H16.6667V6.60717Z" fill="#3C3B3B"/>
</g>
</svg>
